<svg id="Layer_1" data-name="Layer 1" xmlns="http://www.w3.org/2000/svg" viewBox="0 0 120 120"><defs><style>.cls-1,.cls-3{fill:#fbac18;}.cls-1{opacity:0.5;}.cls-2{fill:none;stroke:#fbac18;stroke-linecap:round;stroke-linejoin:round;stroke-width:2px;}.cls-3{font-size:17.47px;font-family:Helvetica-Bold, Helvetica;font-weight:700;}.cls-4{letter-spacing:-0.09em;}.cls-5{letter-spacing:0em;}</style></defs><path class="cls-1" d="M92.16,48.17c0,10-5.82,37.26-23.66,37.26-3.76,0-2.84-1-8.5-1s-4.74,1-8.5,1c-17.84,0-23.66-27.23-23.66-37.26A18.17,18.17,0,0,1,46,30c5.63,0,9.81,2.71,14,2.71S68.36,30,74,30A18.17,18.17,0,0,1,92.16,48.17Z"/><path class="cls-2" d="M92.16,48.17c0,10-5.82,37.26-23.66,37.26-3.76,0-2.84-1-8.5-1s-4.74,1-8.5,1c-17.84,0-23.66-27.23-23.66-37.26A18.17,18.17,0,0,1,46,30c5.63,0,9.81,2.71,14,2.71S68.36,30,74,30A18.17,18.17,0,0,1,92.16,48.17Z"/><path class="cls-2" d="M60,31.47s3.39-13.55,17.15-16.38"/><path class="cls-2" d="M60.64,17.61a9.39,9.39,0,0,1,1.62,8.54,9.39,9.39,0,0,1-9.56-12.1A9.4,9.4,0,0,1,60.64,17.61Z"/><text class="cls-3" transform="translate(43.31 107.35)">E<tspan class="cls-4" x="11.65" y="0">A</tspan><tspan class="cls-5" x="22.7" y="0">T</tspan></text></svg>