<svg id="Layer_1" data-name="Layer 1" xmlns="http://www.w3.org/2000/svg" viewBox="0 0 120 120"><defs><style>.cls-1,.cls-3{fill:#024d27;}.cls-1{opacity:0.5;}.cls-2{fill:none;stroke:#024d27;stroke-linecap:round;stroke-linejoin:round;stroke-width:2px;}.cls-3{font-size:17.47px;font-family:Helvetica-Bold, Helvetica;font-weight:700;}.cls-4{letter-spacing:-0.11em;}</style></defs><path class="cls-1" d="M93.37,46.32a23.46,23.46,0,0,1-35.74,20,19.6,19.6,0,0,1-11.2,3.47,19.81,19.81,0,0,1-5-39c0-.45-.05-.91-.05-1.38A16.89,16.89,0,0,1,74,23.22,23.44,23.44,0,0,1,93.37,46.32Z"/><path class="cls-2" d="M93.37,46.32a23.46,23.46,0,0,1-35.74,20,19.6,19.6,0,0,1-11.2,3.47,19.81,19.81,0,0,1-5-39c0-.45-.05-.91-.05-1.38A16.89,16.89,0,0,1,74,23.22,23.44,23.44,0,0,1,93.37,46.32Z"/><polyline class="cls-2" points="52.62 68.8 50.83 85.74 69.78 85.74 68.01 69.7"/><text class="cls-3" transform="translate(37.66 107.35)">PL<tspan class="cls-4" x="22.33" y="0">A</tspan><tspan x="33.03" y="0">Y</tspan></text></svg>